<svg width="36" height="36" viewBox="0 0 36 36" fill="none" xmlns="http://www.w3.org/2000/svg">
<g clip-path="url(#clip0_251_12)">
<path d="M1.785 31.8087C3.0798 31.8165 5.0934 31.8279 6.0552 31.8273C6.36743 31.8196 6.67847 31.8686 6.9732 31.9719L19.0266 35.8563C19.4859 36.0039 19.9741 36.0385 20.4496 35.9573C20.9252 35.876 21.3741 35.6813 21.7584 35.3895L35.2314 25.1553C35.4459 24.9889 35.624 24.7802 35.7547 24.5423C35.8854 24.3043 35.9658 24.042 35.9912 23.7717C36.0165 23.5014 35.9861 23.2288 35.9018 22.9707C35.8176 22.7125 35.6813 22.4745 35.5014 22.2711L35.481 22.2477C35.1669 21.8994 34.7388 21.6746 34.2737 21.6139C33.8087 21.5531 33.3372 21.6605 32.9442 21.9165L27.774 25.1901C27.733 24.6962 27.5264 24.2306 27.1875 23.8689C26.8487 23.5072 26.3976 23.2706 25.9074 23.1975L12.3066 21.0417C11.5436 20.9245 10.7631 21.0559 10.0806 21.4167L7.1184 23.0367C6.67747 23.2759 6.18365 23.4009 5.682 23.4003H1.8C1.32261 23.4003 0.864773 23.59 0.527208 23.9275C0.189642 24.2651 0 24.7229 0 25.2003L0 30.0087C0.000921914 30.4832 0.188807 30.9383 0.522934 31.2752C0.857061 31.6121 1.31051 31.8038 1.785 31.8087ZM1.2 25.2003C1.2 25.0412 1.26321 24.8886 1.37574 24.7761C1.48826 24.6635 1.64087 24.6003 1.8 24.6003H5.682C6.38488 24.5997 7.07646 24.4234 7.6938 24.0873L10.647 22.4751C11.0994 22.2369 11.6163 22.15 12.1218 22.2273L25.7226 24.3831C25.975 24.4223 26.2034 24.5553 26.3621 24.7554C26.5208 24.9556 26.5981 25.2083 26.5787 25.4631C26.5592 25.7178 26.4444 25.9558 26.2571 26.1295C26.0698 26.3033 25.8239 26.4 25.5684 26.4003H13.8C13.6409 26.4003 13.4883 26.4635 13.3757 26.5761C13.2632 26.6886 13.2 26.8412 13.2 27.0003C13.2 27.1595 13.2632 27.3121 13.3757 27.4246C13.4883 27.5371 13.6409 27.6003 13.8 27.6003H16.5984L20.1468 30.2961C20.3883 30.4785 20.6796 30.5829 20.982 30.5957C21.2843 30.6084 21.5834 30.5289 21.8394 30.3675L33.5928 22.9275C33.7449 22.8278 33.9272 22.7846 34.1078 22.8057C34.2885 22.8267 34.456 22.9106 34.581 23.0427C34.5857 23.0488 34.5907 23.0546 34.596 23.0601C34.6684 23.1399 34.7236 23.2337 34.7582 23.3357C34.7928 23.4377 34.8061 23.5458 34.7972 23.6531C34.7883 23.7605 34.7574 23.8648 34.7065 23.9598C34.6556 24.0547 34.5857 24.1381 34.5012 24.2049L21.033 34.4343C20.8024 34.6091 20.5331 34.7257 20.2478 34.7743C19.9626 34.8229 19.6698 34.8019 19.3944 34.7133L7.3404 30.8295C6.92693 30.6959 6.49513 30.6277 6.0606 30.6273H6.054C5.1066 30.6207 3.0858 30.6159 1.794 30.6087C1.63623 30.6067 1.48561 30.5426 1.37477 30.4303C1.26393 30.318 1.20179 30.1665 1.2018 30.0087L1.2 25.2003ZM23.967 27.6003L21.1974 29.3541C21.148 29.3849 21.0905 29.4001 21.0324 29.3976C20.9742 29.3952 20.9182 29.3752 20.8716 29.3403L18.582 27.6003H23.967Z" fill="black"/>
<path d="M34.8008 0H6.00078C5.68252 0 5.3773 0.126428 5.15225 0.351472C4.92721 0.576516 4.80078 0.88174 4.80078 1.2V18C4.80078 18.3183 4.92721 18.6235 5.15225 18.8485C5.3773 19.0736 5.68252 19.2 6.00078 19.2H34.8008C35.119 19.2 35.4243 19.0736 35.6493 18.8485C35.8744 18.6235 36.0008 18.3183 36.0008 18V1.2C36.0008 0.88174 35.8744 0.576516 35.6493 0.351472C35.4243 0.126428 35.119 0 34.8008 0ZM6.00078 18V1.2H34.8008V18H6.00078Z" fill="black"/>
<path d="M32.653 5.42199C32.1337 5.34378 31.6534 5.10021 31.2834 4.72743C30.9134 4.35465 30.6735 3.87252 30.5992 3.35259C30.5614 3.09005 30.4309 2.84972 30.2312 2.67507C30.0316 2.50042 29.7761 2.40298 29.5108 2.40039H11.2876C11.0225 2.40269 10.767 2.49987 10.5673 2.67433C10.3676 2.84878 10.2371 3.08897 10.1992 3.35139C10.1174 3.91898 9.83929 4.43996 9.41322 4.82379C9.06029 5.14525 8.6195 5.35415 8.14722 5.42379C7.88396 5.46009 7.64279 5.59065 7.46847 5.79124C7.29414 5.99183 7.19847 6.24884 7.19922 6.51459V12.6862C7.20048 12.9513 7.29657 13.2072 7.47012 13.4076C7.64367 13.608 7.88322 13.7397 8.14542 13.7788C8.66478 13.857 9.14507 14.1006 9.51504 14.4734C9.88502 14.8461 10.1249 15.3283 10.1992 15.8482C10.237 16.1107 10.3676 16.3511 10.5672 16.5257C10.7668 16.7004 11.0224 16.7978 11.2876 16.8004H29.5108C29.7761 16.7978 30.0318 16.7003 30.2314 16.5255C30.4311 16.3507 30.5615 16.1102 30.5992 15.8476C30.6736 15.3281 30.9134 14.8463 31.283 14.4737C31.6525 14.1011 32.1323 13.8574 32.6512 13.7788C32.9138 13.7401 33.1537 13.6086 33.3276 13.4081C33.5016 13.2077 33.5979 12.9516 33.5992 12.6862V6.51459C33.598 6.24949 33.5019 5.99359 33.3283 5.79318C33.1548 5.59278 32.9152 5.46111 32.653 5.42199ZM32.3992 12.604C31.6535 12.7325 30.9664 13.0901 30.4333 13.6271C29.9002 14.1641 29.5476 14.8538 29.4244 15.6004H11.374C11.2506 14.8539 10.8979 14.1643 10.3649 13.6274C9.83179 13.0905 9.1448 12.7328 8.39922 12.604V6.59679C9.07706 6.48257 9.70797 6.17649 10.2172 5.71479C10.8305 5.16081 11.2382 4.41558 11.374 3.60039H29.4244C29.5478 4.34688 29.9005 5.03644 30.4336 5.57338C30.9667 6.11032 31.6536 6.46801 32.3992 6.59679V12.604Z" fill="black"/>
<path d="M11.4016 7.7998C11.0456 7.7998 10.6975 7.90537 10.4015 8.10316C10.1055 8.30095 9.87482 8.58207 9.73858 8.91097C9.60234 9.23988 9.5667 9.6018 9.63615 9.95097C9.7056 10.3001 9.87704 10.6209 10.1288 10.8726C10.3805 11.1243 10.7012 11.2958 11.0504 11.3652C11.3996 11.4347 11.7615 11.399 12.0904 11.2628C12.4193 11.1266 12.7004 10.8958 12.8982 10.5998C13.096 10.3038 13.2016 9.95581 13.2016 9.5998C13.2016 9.12242 13.0119 8.66458 12.6744 8.32701C12.3368 7.98945 11.879 7.7998 11.4016 7.7998ZM11.4016 10.1998C11.2829 10.1998 11.1669 10.1646 11.0682 10.0987C10.9696 10.0328 10.8926 9.93905 10.8472 9.82941C10.8018 9.71978 10.7899 9.59914 10.8131 9.48275C10.8362 9.36636 10.8934 9.25945 10.9773 9.17554C11.0612 9.09163 11.1681 9.03448 11.2845 9.01133C11.4009 8.98818 11.5215 9.00006 11.6312 9.04548C11.7408 9.09089 11.8345 9.16779 11.9004 9.26646C11.9664 9.36513 12.0016 9.48114 12.0016 9.5998C12.0016 9.75893 11.9383 9.91155 11.8258 10.0241C11.7133 10.1366 11.5607 10.1998 11.4016 10.1998Z" fill="black"/>
<path d="M27.6016 9.5998C27.6016 9.95581 27.7071 10.3038 27.9049 10.5998C28.1027 10.8958 28.3838 11.1266 28.7127 11.2628C29.0416 11.399 29.4036 11.4347 29.7527 11.3652C30.1019 11.2958 30.4226 11.1243 30.6744 10.8726C30.9261 10.6209 31.0975 10.3001 31.167 9.95097C31.2364 9.6018 31.2008 9.23988 31.0645 8.91097C30.9283 8.58207 30.6976 8.30095 30.4016 8.10316C30.1056 7.90537 29.7576 7.7998 29.4016 7.7998C28.9242 7.7998 28.4663 7.98945 28.1288 8.32701C27.7912 8.66458 27.6016 9.12242 27.6016 9.5998ZM30.0016 9.5998C30.0016 9.71847 29.9664 9.83448 29.9004 9.93315C29.8345 10.0318 29.7408 10.1087 29.6312 10.1541C29.5215 10.1995 29.4009 10.2114 29.2845 10.1883C29.1681 10.1651 29.0612 10.108 28.9773 10.0241C28.8934 9.94016 28.8362 9.83325 28.8131 9.71686C28.7899 9.60047 28.8018 9.47983 28.8472 9.37019C28.8926 9.26056 28.9696 9.16685 29.0682 9.10092C29.1669 9.03499 29.2829 8.9998 29.4016 8.9998C29.5607 8.9998 29.7133 9.06302 29.8258 9.17554C29.9383 9.28806 30.0016 9.44067 30.0016 9.5998Z" fill="black"/>
<path d="M20.4016 4.7998C19.4522 4.7998 18.5242 5.08132 17.7348 5.60875C16.9455 6.13618 16.3302 6.88584 15.9669 7.76292C15.6036 8.64001 15.5086 9.60513 15.6938 10.5362C15.879 11.4673 16.3362 12.3226 17.0075 12.9939C17.6787 13.6652 18.534 14.1224 19.4651 14.3076C20.3962 14.4928 21.3614 14.3977 22.2384 14.0344C23.1155 13.6711 23.8652 13.0559 24.3926 12.2665C24.9201 11.4772 25.2016 10.5492 25.2016 9.5998C25.2001 8.3272 24.694 7.10714 23.7941 6.20727C22.8942 5.30741 21.6742 4.80123 20.4016 4.7998ZM20.4016 13.1998C19.6896 13.1998 18.9935 12.9887 18.4015 12.5931C17.8095 12.1975 17.3481 11.6353 17.0756 10.9775C16.8031 10.3197 16.7318 9.59581 16.8707 8.89748C17.0096 8.19915 17.3525 7.55769 17.856 7.05422C18.3594 6.55075 19.0009 6.20788 19.6992 6.06898C20.3976 5.93007 21.1214 6.00136 21.7792 6.27384C22.437 6.54631 22.9993 7.00773 23.3949 7.59975C23.7904 8.19177 24.0016 8.88779 24.0016 9.5998C24.0006 10.5543 23.621 11.4694 22.9461 12.1443C22.2712 12.8193 21.3561 13.1989 20.4016 13.1998Z" fill="black"/>
</g>
<defs>
<clipPath id="clip0_251_12">
<rect width="36" height="36" fill="white"/>
</clipPath>
</defs>
</svg>
