<svg width="37" height="37" viewBox="0 0 37 37" fill="none" xmlns="http://www.w3.org/2000/svg">
<path d="M28.9174 25.1657L32.4431 29.4228C32.7387 29.7799 32.4805 30.317 32.0262 30.317V30.3193H30.3197V33.9837C30.3197 34.2836 30.0771 34.5294 29.7776 34.5294V34.5318H27.2132C26.8997 34.5318 26.6555 34.2789 26.671 33.9344V30.3186H24.9622C24.5189 30.3186 24.2171 29.7814 24.5787 29.3821L28.0781 25.1587C28.2974 24.8925 28.7058 24.8995 28.9174 25.1657ZM30.8665 29.2232L28.4942 26.3598L26.1242 29.2232H27.2132V29.2255C27.5134 29.2255 27.7553 29.4698 27.7553 29.7713V33.4356H29.2347L29.2324 29.7713C29.2324 29.469 29.475 29.2232 29.7768 29.2232H30.8665ZM24.774 24.7508C24.4737 24.7508 24.2295 24.5041 24.2295 24.2027C24.2295 23.8989 24.4745 23.6546 24.774 23.6546H32.2129C32.5147 23.6546 32.7574 23.8989 32.7574 24.2027C32.7574 24.5049 32.5147 24.7508 32.2129 24.7508H24.774ZM29.0138 19.9526C33.2295 20.2236 36.543 23.7525 36.543 28.0385C36.543 32.5133 32.9378 36.1416 28.4934 36.1416C26.6633 36.1416 24.977 35.527 23.6252 34.4903H6.84242C5.71538 34.4903 4.79446 33.5648 4.79446 32.4303V30.2504H2.58938C1.46234 30.2504 0.542969 29.325 0.542969 28.1904V2.2032C0.542969 1.06865 1.46234 0.141602 2.58938 0.141602H22.7151C23.8414 0.141602 24.7615 1.06944 24.7615 2.2032V4.38302H26.9666C28.0937 4.38302 29.0146 5.30851 29.0146 6.44305V19.9526H29.0138ZM22.4546 33.3933C19.6459 30.1862 19.7976 25.3325 22.803 22.3094C24.1346 20.969 25.9298 20.0967 27.9249 19.9566V6.44227C27.9249 5.91375 27.4924 5.4792 26.9658 5.4792H6.84242C6.31585 5.4792 5.88339 5.91454 5.88339 6.44227V32.4303C5.88339 32.9588 6.31585 33.3933 6.84242 33.3933H22.4546ZM33.4146 23.0838C30.6985 20.3473 26.2907 20.3473 23.5723 23.0838C20.8538 25.8203 20.8538 30.2575 23.5723 32.9917C26.2907 35.7282 30.6985 35.7282 33.4146 32.9917C36.1338 30.2575 36.1338 25.8203 33.4146 23.0838ZM9.1424 27.7183C8.84061 27.7183 8.59793 27.474 8.59793 27.1702C8.59793 26.8679 8.84061 26.6221 9.1424 26.6221H15.6705C15.9708 26.6221 16.215 26.8687 16.215 27.1702C16.215 27.474 15.97 27.7183 15.6705 27.7183H9.1424ZM9.1424 23.9004C8.84061 23.9004 8.59793 23.6538 8.59793 23.3524C8.59793 23.0486 8.84061 22.8043 9.1424 22.8043H17.5738C17.8756 22.8043 18.1183 23.0486 18.1183 23.3524C18.1183 23.6538 17.8756 23.9004 17.5738 23.9004H9.1424ZM9.1424 20.0811C8.84061 20.0811 8.59793 19.8344 8.59793 19.533C8.59793 19.2315 8.84061 18.9849 9.1424 18.9849H23.0504C23.3498 18.9849 23.5948 19.2315 23.5948 19.533C23.5948 19.8344 23.3498 20.0811 23.0504 20.0811H9.1424ZM9.1424 16.2617C8.84061 16.2617 8.59793 16.0174 8.59793 15.7159C8.59793 15.4121 8.84061 15.1678 9.1424 15.1678H23.0504C23.3498 15.1678 23.5948 15.4121 23.5948 15.7159C23.5948 16.0182 23.3498 16.2617 23.0504 16.2617H9.1424ZM11.6049 7.20333H22.2033C23.1802 7.20333 23.9759 8.00432 23.9759 8.98774V10.2241C23.9759 11.2075 23.1802 12.0085 22.2033 12.0085H11.6049C10.6303 12.0085 9.83231 11.2075 9.83231 10.2241V8.98774C9.83231 8.0051 10.6303 7.20333 11.6049 7.20333ZM22.2033 8.30029H11.6049C11.23 8.30029 10.9212 8.61113 10.9212 8.98853V10.2249C10.9212 10.6023 11.23 10.9131 11.6049 10.9131H22.2033C22.5782 10.9131 22.887 10.6023 22.887 10.2249V8.98853C22.887 8.61035 22.5782 8.30029 22.2033 8.30029ZM4.79446 7.07492V6.44227C4.79446 5.30772 5.71616 4.38224 6.84242 4.38224H23.6718V2.2032C23.6718 1.67312 23.2394 1.23778 22.7151 1.23778H2.58938C2.06436 1.23778 1.63268 1.67312 1.63268 2.2032V28.1912C1.63268 28.7197 2.06514 29.1543 2.58938 29.1543H4.79446V7.07492Z" fill="black"/>
</svg>
